<?xml version="1.0" ?><svg viewBox="0 0 64 64" xmlns="http://www.w3.org/2000/svg"><title/><g data-name="17-Bell" id="_17-Bell"><path d="M26,21a4,4,0,1,0,4,4A4,4,0,0,0,26,21Zm0,6a2,2,0,1,1,2-2A2,2,0,0,1,26,27Z"/><path d="M51.9,24.14a4,4,0,0,0-6.34-2.29A20,20,0,1,0,17.34,44H6V58H46V51.85A14,14,0,0,0,58,38V33C58,28.37,55.63,25,51.9,24.14ZM48,23a2,2,0,1,1-2,2A2,2,0,0,1,48,23ZM8,26A18,18,0,1,1,26,44,18,18,0,0,1,8,26ZM44,56H8V46H44V56ZM56,38A12,12,0,0,1,46,49.82V44H34.66A20,20,0,0,0,45.85,28.36a4,4,0,0,0,5.95-2.17c3.07.87,4.2,4,4.2,6.81Z"/></g></svg>